HIERARCHY
ROOT Hips
{
 OFFSET 0.000000 0.000000 0.000000
 CHANNELS 6 Xposition Yposition Zposition Yrotation Xrotation Zrotation
 JOINT Chest
 {
  OFFSET 0.000000 9.585900 0.002600
  CHANNELS 3 Yrotation Xrotation Zrotation
  JOINT Chest2
  {
   OFFSET 0.000000 9.601200 -0.005300
   CHANNELS 3 Yrotation Xrotation Zrotation
   JOINT Chest3
   {
    OFFSET 0.000000 9.561800 0.000000
    CHANNELS 3 Yrotation Xrotation Zrotation
    JOINT Chest4
    {
     OFFSET 0.000000 9.552100 0.000000
     CHANNELS 3 Yrotation Xrotation Zrotation
     JOINT Neck
     {
      OFFSET 0.000000 14.453000 0.000000
      CHANNELS 3 Yrotation Xrotation Zrotation
      JOINT Head
      {
       OFFSET 0.000000 8.936500 -0.011300
       CHANNELS 3 Yrotation Xrotation Zrotation
       End Site
       {
        OFFSET 0.000000 17.073600 -0.006000
       }
      }
     }
     JOINT RightCollar
     {
      OFFSET -2.921100 9.558500 0.000000
      CHANNELS 3 Yrotation Xrotation Zrotation
      JOINT RightShoulder
      {
       OFFSET -13.519700 0.000000 0.000000
       CHANNELS 3 Yrotation Xrotation Zrotation
       JOINT RightElbow
       {
        OFFSET 0.000000 -29.696600 0.000000
        CHANNELS 3 Yrotation Xrotation Zrotation
        JOINT RightWrist
        {
         OFFSET 0.000000 -24.004700 0.000000
         CHANNELS 3 Yrotation Xrotation Zrotation
         End Site
         {
          OFFSET 0.000000 -17.728500 0.000000
         }
        }
       }
      }
     }
     JOINT LeftCollar
     {
      OFFSET 2.921100 9.558500 0.000000
      CHANNELS 3 Yrotation Xrotation Zrotation
      JOINT LeftShoulder
      {
       OFFSET 13.519700 0.000000 0.000000
       CHANNELS 3 Yrotation Xrotation Zrotation
       JOINT LeftElbow
       {
        OFFSET 0.000000 -29.696600 0.000000
        CHANNELS 3 Yrotation Xrotation Zrotation
        JOINT LeftWrist
        {
         OFFSET 0.000000 -24.004700 0.000000
         CHANNELS 3 Yrotation Xrotation Zrotation
         End Site
         {
          OFFSET 0.000000 -17.728500 0.000000
         }
        }
       }
      }
     }
    }
   }
  }
 }
 JOINT RightHip
 {
  OFFSET -7.771700 -0.012900 -0.001300
  CHANNELS 3 Yrotation Xrotation Zrotation
  JOINT RightKnee
  {
   OFFSET 0.000000 -40.869800 0.001200
   CHANNELS 3 Yrotation Xrotation Zrotation
   JOINT RightAnkle
   {
    OFFSET 0.000000 -39.717900 0.002100
    CHANNELS 3 Yrotation Xrotation Zrotation
    JOINT RightToe
    {
     OFFSET 0.000000 -4.965400 11.033500
     CHANNELS 3 Yrotation Xrotation Zrotation
     End Site
     {
      OFFSET 0.000000 -1.423100 5.872300
     }
    }
   }
  }
 }
 JOINT LeftHip
 {
  OFFSET 7.771700 -0.012900 -0.001300
  CHANNELS 3 Yrotation Xrotation Zrotation
  JOINT LeftKnee
  {
   OFFSET 0.000000 -40.869800 0.001200
   CHANNELS 3 Yrotation Xrotation Zrotation
   JOINT LeftAnkle
   {
    OFFSET 0.000000 -39.717900 0.002100
    CHANNELS 3 Yrotation Xrotation Zrotation
    JOINT LeftToe
    {
     OFFSET 0.000000 -4.965400 11.033500
     CHANNELS 3 Yrotation Xrotation Zrotation
     End Site
     {
      OFFSET 0.000000 -1.423100 5.872300
     }
    }
   }
  }
 }
}
MOTION
Frames: 8
Frame Time: 0.008333
-95.980442 46.915764 -26.288568 175.796391 -31.501036 -2.411894 0.735518 18.823532 0.982476 0.066982 2.204178 0.105389 0.157453 3.634423 0.175107 0.568083 16.400408 0.871069 0.100950 18.144806 -3.763143 1.409699 -2.010103 -6.950208 -0.490858 0.712359 -2.454538 7.596942 -9.041863 -15.604935 -41.679354 -57.079029 90.781242 -1.314897 5.170070 -17.174263 0.983138 0.775028 3.096842 -4.511971 -4.559143 13.109604 60.761284 -67.637319 -99.398956 -1.767820 14.156804 5.287476 -2.684525 -55.606653 -6.869721 -168.535837 78.170206 -159.349116 -7.256498 -16.031735 -4.972555 -0.010976 -1.210681 0.229576 0.870228 -57.288888 10.345414 -110.896815 83.156030 -115.171342 6.284334 -5.707887 4.969832 0.098186 0.094082 -0.224779
-95.973732 46.894826 -26.316150 175.753888 -31.527708 -2.342251 0.678800 18.848644 0.905682 0.100394 2.206926 0.106176 0.153181 3.637906 0.175419 0.485946 16.421147 0.865577 0.103168 18.191679 -3.717607 1.396521 -1.925114 -6.865559 -0.481502 0.735064 -2.470305 7.553692 -9.074179 -15.625268 -41.677419 -57.020524 90.757632 -1.293727 5.155004 -17.113768 0.972932 0.747573 3.075229 -4.568137 -4.567198 13.107855 60.736528 -67.662289 -99.347054 -1.772246 14.176790 5.307477 -2.745112 -55.585213 -6.968265 -168.572682 78.159770 -159.394065 -7.154242 -15.867290 -5.036467 -0.019167 -1.142365 0.151714 0.893678 -57.258980 10.246780 -111.540527 83.181919 -115.774683 6.327785 -5.804317 4.911297 0.082879 0.121191 -0.196689
-95.969356 46.871997 -26.340789 175.715679 -31.538811 -2.277513 0.658550 18.859196 0.845421 0.040148 2.213645 0.102141 0.160268 3.642002 0.176381 0.450614 16.434609 0.852029 0.102821 18.240053 -3.660748 1.375028 -1.837935 -6.759275 -0.473476 0.762583 -2.484309 7.492700 -9.112247 -15.636021 -41.674615 -56.976466 90.735200 -1.267162 5.138548 -17.050827 0.965520 0.720463 3.051322 -4.635192 -4.584678 13.125013 60.725706 -67.687723 -99.311167 -1.776429 14.192395 5.324631 -2.795599 -55.575014 -7.067637 -168.772672 78.163141 -159.593216 -7.081623 -15.732038 -5.082583 -0.020179 -1.069478 0.078102 0.906497 -57.240219 10.196857 -111.840027 83.195075 -116.085063 6.364655 -5.867327 4.904583 0.067808 0.138793 -0.173530
-95.959427 46.852008 -26.364758 175.621667 -31.558994 -2.235002 0.648600 18.885859 0.814190 0.034398 2.216661 0.100934 0.172940 3.641068 0.182416 0.440168 16.441789 0.836285 0.074038 18.291742 -3.591679 1.346309 -1.750797 -6.636949 -0.497392 0.794670 -2.489582 7.422527 -9.147340 -15.635730 -41.658571 -56.963232 90.737614 -1.254584 5.116305 -17.027909 0.934963 0.699659 3.032534 -4.710221 -4.614032 13.163355 60.721700 -67.711044 -99.290330 -1.775598 14.203985 5.340572 -2.853528 -55.551997 -7.074986 -169.076646 78.187861 -159.886938 -7.028823 -15.564503 -5.131651 -0.029620 -1.034542 0.020356 0.913995 -57.216406 10.226282 -112.326867 83.185711 -116.539999 6.349563 -5.995252 4.890641 0.108915 0.200863 -0.171631
-95.946158 46.836148 -26.386650 175.543974 -31.575889 -2.240360 0.654799 18.912196 0.827016 0.068851 2.211481 0.106047 0.127326 3.649501 0.177184 0.495498 16.433163 0.836637 -0.009747 18.349380 -3.511512 1.309433 -1.664473 -6.505280 -0.584252 0.831217 -2.483655 7.350491 -9.170195 -15.626094 -41.644521 -56.961239 90.744157 -1.240516 5.097534 -17.013840 0.853972 0.691156 3.021704 -4.786021 -4.657385 13.218884 60.704711 -67.727345 -99.269583 -1.771195 14.207387 5.354119 -2.966334 -55.533187 -7.012425 -169.445859 78.223796 -160.240808 -6.993250 -15.404043 -5.209246 -0.041140 -0.991491 -0.001657 0.885924 -57.203900 10.312203 -112.829577 83.169701 -116.994259 6.323588 -6.090689 4.843451 0.145462 0.239454 -0.158831
-95.937648 46.824460 -26.405125 175.475085 -31.575783 -2.240114 0.706339 18.913316 0.855474 0.048643 2.215115 0.102460 0.016538 3.668128 0.155664 0.536998 16.421515 0.837126 -0.017478 18.394561 -3.444213 1.265324 -1.581020 -6.367269 -0.595354 0.854267 -2.487611 7.281765 -9.178280 -15.607380 -41.633901 -56.964908 90.752651 -1.226361 5.083301 -17.007877 0.857992 0.677999 2.999743 -4.858133 -4.712154 13.285601 60.666704 -67.731958 -99.238060 -1.767610 14.206745 5.360287 -3.061808 -55.537111 -6.968111 -169.877083 78.267183 -160.651839 -6.977409 -15.240716 -5.331273 -0.048331 -0.946610 0.017124 0.796782 -57.193230 10.426460 -113.171168 83.172879 -117.340320 6.324861 -6.172495 4.821694 0.145436 0.273648 -0.161549
-95.929064 46.818775 -26.421651 175.408532 -31.572846 -2.254821 0.632052 18.942655 0.823237 0.045513 2.212418 0.101146 0.055731 3.655449 0.162629 0.540764 16.418397 0.835659 -0.026290 18.432532 -3.374925 1.215096 -1.502617 -6.225629 -0.608998 0.871109 -2.487724 7.215624 -9.172666 -15.575959 -41.622843 -56.972194 90.754802 -1.214607 5.076358 -17.007961 0.911367 0.665384 2.986133 -4.976385 -4.777459 13.358041 60.609176 -67.720162 -99.191371 -1.765673 14.209815 5.358003 -3.173842 -55.546015 -6.899154 -170.416455 78.321982 -161.164975 -6.982762 -15.077418 -5.497887 -0.050610 -0.897008 0.065161 0.684106 -57.182318 10.573877 -113.415206 83.166337 -117.598733 6.331142 -6.243375 4.810648 0.150494 0.287084 -0.123683
-95.920624 46.818470 -26.436215 175.348048 -31.566668 -2.279237 0.600461 18.954951 0.821723 0.043737 2.209980 0.100092 0.074260 3.648381 0.166300 0.452187 16.417531 0.810151 0.031175 18.469436 -3.305387 1.159496 -1.430958 -6.085592 -0.557983 0.886477 -2.485761 7.155626 -9.153605 -15.532377 -41.606732 -56.981931 90.744933 -1.210589 5.075232 -17.016402 0.948321 0.666536 2.977116 -5.006005 -4.850224 13.431555 60.532730 -67.691950 -99.128706 -1.764921 14.217590 5.346638 -3.300195 -55.559033 -6.815282 -171.107407 78.389047 -161.826483 -7.020138 -14.927994 -5.694592 -0.043556 -0.834670 0.127603 0.559886 -57.176061 10.731513 -113.615178 83.157422 -117.818253 6.356151 -6.294748 4.795924 0.133346 0.288415 -0.093320
